<svg width="16" height="16" viewBox="0 0 16 16" fill="none" xmlns="http://www.w3.org/2000/svg">
<path d="M8.09306 5.07812H4.57972C3.33972 5.07812 3.05972 5.69813 2.90639 6.46479L2.33972 9.16479H10.3397L9.77305 6.46479C9.60639 5.69813 9.33306 5.07812 8.09306 5.07812V5.07812Z" stroke="#374253" stroke-width="1.5" stroke-linecap="round" stroke-linejoin="round"/>
<path d="M11.3264 13.5735C11.3798 14.1602 10.9131 14.6668 10.3131 14.6668H9.37309C8.83309 14.6668 8.75976 14.4335 8.65976 14.1535L8.55976 13.8535C8.41976 13.4468 8.32643 13.1668 7.60643 13.1668H5.04643C4.32643 13.1668 4.21976 13.4802 4.09309 13.8535L3.99309 14.1535C3.89976 14.4402 3.82643 14.6668 3.27976 14.6668H2.33976C1.73976 14.6668 1.26643 14.1602 1.32643 13.5735L1.60643 10.5268C1.67976 9.77349 1.81976 9.16016 3.13309 9.16016H9.51309C10.8264 9.16016 10.9664 9.77349 11.0398 10.5268L11.3264 13.5735Z" stroke="#374253" stroke-width="1.5" stroke-linecap="round" stroke-linejoin="round"/>
<path d="M2.33301 7.66406H1.83301" stroke="#374253" stroke-width="1.5" stroke-linecap="round" stroke-linejoin="round"/>
<path d="M10.833 7.66406H10.333" stroke="#374253" stroke-width="1.5" stroke-linecap="round" stroke-linejoin="round"/>
<path d="M3.33301 11.1641H4.83301" stroke="#374253" stroke-width="1.5" stroke-linecap="round" stroke-linejoin="round"/>
<path d="M7.83301 11.1641H9.33301" stroke="#374253" stroke-width="1.5" stroke-linecap="round" stroke-linejoin="round"/>
<path d="M12.4731 5.82678C12.6598 5.39345 12.5931 4.80678 12.2464 4.29345C11.9064 3.78011 11.3864 3.49345 10.9131 3.50011" stroke="#374253" stroke-width="1.5" stroke-linecap="round" stroke-linejoin="round"/>
<path d="M14.5466 6.48536C14.8266 5.4787 14.6266 4.24536 13.9133 3.1787C13.1999 2.11203 12.1333 1.4587 11.0933 1.33203" stroke="#374253" stroke-width="1.5" stroke-linecap="round" stroke-linejoin="round"/>
</svg>
