<svg width="28" height="28" viewBox="0 0 28 28" fill="none" xmlns="http://www.w3.org/2000/svg">
<path opacity="0.4" d="M23.9166 11.887H20.545C17.78 11.887 15.5283 9.63537 15.5283 6.87036V3.4987C15.5283 2.85703 15.0033 2.33203 14.3616 2.33203H9.41496C5.82163 2.33203 2.91663 4.66536 2.91663 8.83037V19.167C2.91663 23.332 5.82163 25.6654 9.41496 25.6654H18.585C22.1783 25.6654 25.0833 23.332 25.0833 19.167V13.0537C25.0833 12.412 24.5583 11.887 23.9166 11.887Z" fill="#596579"/>
<path opacity="0.4" d="M18.4333 2.57889C17.9549 2.10056 17.1266 2.42723 17.1266 3.09223V7.16389C17.1266 8.86723 18.5733 10.2789 20.3349 10.2789C21.4433 10.2906 22.9833 10.2906 24.3016 10.2906C24.9666 10.2906 25.3166 9.50889 24.8499 9.04223C23.1699 7.35056 20.1599 4.30556 18.4333 2.57889Z" fill="#596579"/>
<path d="M15.75 16.0391H8.75C8.27167 16.0391 7.875 15.6424 7.875 15.1641C7.875 14.6857 8.27167 14.2891 8.75 14.2891H15.75C16.2283 14.2891 16.625 14.6857 16.625 15.1641C16.625 15.6424 16.2283 16.0391 15.75 16.0391Z" fill="white"/>
<path d="M13.4167 20.707H8.75C8.27167 20.707 7.875 20.3104 7.875 19.832C7.875 19.3537 8.27167 18.957 8.75 18.957H13.4167C13.895 18.957 14.2917 19.3537 14.2917 19.832C14.2917 20.3104 13.895 20.707 13.4167 20.707Z" fill="white"/>
</svg>
