<svg width="18" height="16" viewBox="0 0 18 16" fill="none" xmlns="http://www.w3.org/2000/svg">
<path d="M1 0H17V16H1V0Z" fill="white" fill-opacity="0.01"/>
<path d="M17 0H1V16H17V0Z" fill="white" fill-opacity="0.01"/>
<path d="M4.99984 12.9987C5.35346 12.9987 5.6926 12.8582 5.94265 12.6082C6.19269 12.3581 6.33317 12.019 6.33317 11.6654C6.33317 11.3117 6.19269 10.9726 5.94265 10.7226C5.6926 10.4725 5.35346 10.332 4.99984 10.332C4.64622 10.332 4.30708 10.4725 4.05703 10.7226C3.80698 10.9726 3.6665 11.3117 3.6665 11.6654C3.6665 12.019 3.80698 12.3581 4.05703 12.6082C4.30708 12.8582 4.64622 12.9987 4.99984 12.9987V12.9987Z" stroke="#A7B2C3" stroke-width="2" stroke-linejoin="round"/>
<path d="M12.6668 12.9987C13.0205 12.9987 13.3596 12.8582 13.6096 12.6082C13.8597 12.3581 14.0002 12.019 14.0002 11.6654C14.0002 11.3117 13.8597 10.9726 13.6096 10.7226C13.3596 10.4725 13.0205 10.332 12.6668 10.332C12.3132 10.332 11.9741 10.4725 11.724 10.7226C11.474 10.9726 11.3335 11.3117 11.3335 11.6654C11.3335 12.019 11.474 12.3581 11.724 12.6082C11.9741 12.8582 12.3132 12.9987 12.6668 12.9987V12.9987Z" stroke="#A7B2C3" stroke-width="2" stroke-linejoin="round"/>
<path d="M3.6665 11.668H1.6665V3.66797H11.3332V11.668H6.33317" stroke="#A7B2C3" stroke-width="2" stroke-linecap="round" stroke-linejoin="round"/>
<path d="M11.3335 11.6667V6H14.1905L16.3335 8.83333V11.6667H14.2705" stroke="#A7B2C3" stroke-width="2" stroke-linecap="round" stroke-linejoin="round"/>
</svg>
