<svg width="29" height="28" viewBox="0 0 29 28" fill="none" xmlns="http://www.w3.org/2000/svg">
<path opacity="0.4" d="M24.5579 9.85963C23.3329 4.46964 18.6312 2.04297 14.5012 2.04297H14.4895C10.3712 2.04297 5.65788 4.45797 4.43288 9.84797C3.06788 15.868 6.75454 20.9663 10.0912 24.1746C11.2739 25.3194 12.8553 25.9594 14.5012 25.9596C16.0879 25.9596 17.6745 25.3646 18.8995 24.1746C22.2362 20.9663 25.9229 15.8796 24.5579 9.85963Z" fill="#596579"/>
<path d="M14.5024 15.7055C14.985 15.7055 15.4629 15.6104 15.9088 15.4257C16.3546 15.241 16.7598 14.9703 17.101 14.6291C17.4423 14.2878 17.713 13.8827 17.8977 13.4368C18.0823 12.991 18.1774 12.5131 18.1774 12.0305C18.1774 11.5479 18.0823 11.07 17.8977 10.6241C17.713 10.1782 17.4423 9.77311 17.101 9.43185C16.7598 9.0906 16.3546 8.8199 15.9088 8.63521C15.4629 8.45053 14.985 8.35547 14.5024 8.35547C13.5277 8.35547 12.593 8.74266 11.9038 9.43185C11.2146 10.121 10.8274 11.0558 10.8274 12.0305C10.8274 13.0051 11.2146 13.9399 11.9038 14.6291C12.593 15.3183 13.5277 15.7055 14.5024 15.7055Z" fill="white"/>
</svg>
