<svg width="16" height="16" viewBox="0 0 16 16" fill="none" xmlns="http://www.w3.org/2000/svg">
<path d="M15 3.33333C15 2.04689 13.9531 1 12.6667 1C12.1857 1.00136 11.717 1.15164 11.325 1.43019C10.9329 1.70873 10.6368 2.10187 10.4772 2.55556H5.52278C5.36322 2.10187 5.06706 1.70873 4.67501 1.43019C4.28296 1.15164 3.81426 1.00136 3.33333 1C2.04689 1 1 2.04689 1 3.33333C1 4.346 1.65256 5.20078 2.55556 5.52278V10.4764C2.10199 10.6364 1.70903 10.9328 1.43053 11.3249C1.15204 11.7171 1.00165 12.1857 1 12.6667C1 13.9531 2.04689 15 3.33333 15C3.81426 14.9986 4.28296 14.8484 4.67501 14.5698C5.06706 14.2913 5.36322 13.8981 5.52278 13.4444H10.4764C10.6361 13.8981 10.9323 14.2911 11.3243 14.5697C11.7163 14.8482 12.185 14.9985 12.6659 15C13.9523 15 14.9992 13.9531 14.9992 12.6667C14.9976 12.1857 14.8472 11.7171 14.5687 11.3249C14.2902 10.9328 13.8972 10.6364 13.4437 10.4764V5.52356C13.8974 5.36379 14.2906 5.06749 14.5693 4.67534C14.8479 4.28319 14.9984 3.8144 15 3.33333ZM12.6667 2.55556C12.8207 2.5554 12.9713 2.60095 13.0995 2.68644C13.2277 2.77193 13.3276 2.89352 13.3866 3.03581C13.4456 3.17811 13.4611 3.33471 13.4311 3.48581C13.4011 3.63691 13.3269 3.7757 13.218 3.88463C13.109 3.99356 12.9702 4.06773 12.8191 4.09774C12.668 4.12776 12.5114 4.11228 12.3691 4.05325C12.2269 3.99423 12.1053 3.89432 12.0198 3.76617C11.9343 3.63802 11.8887 3.48738 11.8889 3.33333C11.8889 2.90478 12.2373 2.55556 12.6667 2.55556ZM10.4772 11.8889H5.52278C5.40714 11.5634 5.22045 11.2677 4.97627 11.0234C4.73208 10.7791 4.43654 10.5923 4.11111 10.4764V5.52356C4.43654 5.40774 4.73208 5.22089 4.97627 4.97657C5.22045 4.73225 5.40714 4.4366 5.52278 4.11111H10.4764C10.5923 4.43654 10.7791 4.73208 11.0234 4.97627C11.2677 5.22045 11.5634 5.40714 11.8889 5.52278V10.4764C11.5635 10.5923 11.2679 10.7791 11.0237 11.0234C10.7795 11.2677 10.5929 11.5634 10.4772 11.8889ZM3.33333 2.55556C3.48738 2.5554 3.63802 2.60095 3.76617 2.68644C3.89432 2.77193 3.99423 2.89352 4.05325 3.03581C4.11228 3.17811 4.12776 3.33471 4.09774 3.48581C4.06773 3.63691 3.99356 3.7757 3.88463 3.88463C3.7757 3.99356 3.63691 4.06773 3.48581 4.09774C3.33471 4.12776 3.17811 4.11228 3.03581 4.05325C2.89352 3.99423 2.77193 3.89432 2.68644 3.76617C2.60095 3.63802 2.5554 3.48738 2.55556 3.33333C2.55556 2.90478 2.904 2.55556 3.33333 2.55556ZM3.33333 13.4444C3.13307 13.4355 2.94398 13.3496 2.80544 13.2047C2.66689 13.0599 2.58957 12.8671 2.58957 12.6667C2.58957 12.4662 2.66689 12.2735 2.80544 12.1286C2.94398 11.9837 3.13307 11.8978 3.33333 11.8889C3.5336 11.8978 3.72268 11.9837 3.86123 12.1286C3.99977 12.2735 4.0771 12.4662 4.0771 12.6667C4.0771 12.8671 3.99977 13.0599 3.86123 13.2047C3.72268 13.3496 3.5336 13.4355 3.33333 13.4444ZM12.6667 13.4444C12.4664 13.4355 12.2773 13.3496 12.1388 13.2047C12.0002 13.0599 11.9229 12.8671 11.9229 12.6667C11.9229 12.4662 12.0002 12.2735 12.1388 12.1286C12.2773 11.9837 12.4664 11.8978 12.6667 11.8889C12.8669 11.8978 13.056 11.9837 13.1946 12.1286C13.3331 12.2735 13.4104 12.4662 13.4104 12.6667C13.4104 12.8671 13.3331 13.0599 13.1946 13.2047C13.056 13.3496 12.8669 13.4355 12.6667 13.4444Z" fill="#A7B2C3"/>
</svg>
