<svg width="28" height="28" viewBox="0 0 28 28" fill="none" xmlns="http://www.w3.org/2000/svg">
<path d="M21.0001 15.1641C19.9034 15.1641 18.8884 15.5491 18.0834 16.1907C17.5358 16.6259 17.0938 17.1795 16.7907 17.8099C16.4877 18.4404 16.3313 19.1312 16.3334 19.8307C16.3334 20.7057 16.5784 21.5341 17.0101 22.2341C17.4213 22.9253 18.0056 23.4975 18.7052 23.8944C19.4048 24.2912 20.1957 24.4991 21.0001 24.4974C22.1784 24.4974 23.2517 24.0657 24.0684 23.3307C24.4301 23.0274 24.7451 22.6541 24.9901 22.2341C25.4217 21.5341 25.6667 20.7057 25.6667 19.8307C25.6667 17.2524 23.5784 15.1641 21.0001 15.1641ZM23.4151 19.3291L20.9301 21.6274C20.7667 21.7791 20.5451 21.8607 20.3351 21.8607C20.1134 21.8607 19.8917 21.7791 19.7167 21.6041L18.5617 20.4491C18.399 20.2844 18.3077 20.0622 18.3077 19.8307C18.3077 19.5992 18.399 19.3771 18.5617 19.2124C18.9001 18.8741 19.4601 18.8741 19.7984 19.2124L20.3584 19.7724L22.2251 18.0457C22.5751 17.7191 23.1351 17.7424 23.4617 18.0924C23.7884 18.4424 23.7651 18.9907 23.4151 19.3291Z" fill="#7B8698"/>
<path opacity="0.4" d="M24.605 25.082C24.605 25.4087 24.3484 25.6654 24.0217 25.6654H3.97835C3.65169 25.6654 3.39502 25.4087 3.39502 25.082C3.39502 20.252 8.15502 16.332 14 16.332C15.2017 16.332 16.3684 16.4954 17.4417 16.8104C16.7534 17.627 16.3334 18.6887 16.3334 19.832C16.3334 20.707 16.5784 21.5354 17.01 22.2354C17.2434 22.632 17.5467 22.9937 17.8967 23.297C18.7134 24.0437 19.7984 24.4987 21 24.4987C22.3067 24.4987 23.485 23.962 24.325 23.0987C24.5117 23.7287 24.605 24.3937 24.605 25.082Z" fill="#596579"/>
<path opacity="0.4" d="M14 13.9987C15.5471 13.9987 17.0308 13.3841 18.1247 12.2902C19.2187 11.1962 19.8333 9.71246 19.8333 8.16536C19.8333 6.61827 19.2187 5.13454 18.1247 4.04058C17.0308 2.94661 15.5471 2.33203 14 2.33203C12.4529 2.33203 10.9691 2.94661 9.87517 4.04058C8.78121 5.13454 8.16663 6.61827 8.16663 8.16536C8.16663 9.71246 8.78121 11.1962 9.87517 12.2902C10.9691 13.3841 12.4529 13.9987 14 13.9987Z" fill="#596579"/>
</svg>
