<svg width="21" height="19" viewBox="0 0 21 19" fill="none" xmlns="http://www.w3.org/2000/svg">
<path d="M11.001 1.53053C12.1436 0.507728 13.6345 -0.0386034 15.1674 0.00380146C16.7003 0.0462063 18.1587 0.674127 19.243 1.75853C20.3264 2.84172 20.9543 4.29827 20.9982 5.82961C21.0421 7.36096 20.4986 8.85108 19.479 9.99453L10.999 18.4865L2.52102 9.99453C1.50028 8.85049 0.956225 7.35909 1.00056 5.82651C1.04489 4.29394 1.67425 2.83648 2.75942 1.75336C3.84459 0.670234 5.30323 0.0436327 6.83589 0.00219405C8.36854 -0.0392446 9.85891 0.507624 11.001 1.53053ZM17.827 3.17153C17.1046 2.44965 16.1333 2.03161 15.1125 2.00316C14.0916 1.97471 13.0985 2.33801 12.337 3.01853L11.002 4.21653L9.66602 3.01953C8.90406 2.33819 7.91013 1.97449 6.88837 2.00314C5.86662 2.03178 4.89462 2.45058 4.17202 3.17353C3.45628 3.88923 3.03848 4.84967 3.00285 5.86123C2.96722 6.87279 3.31641 7.86024 3.98002 8.62453L11 15.6555L18.02 8.62553C18.6844 7.86093 19.0339 6.87277 18.9981 5.8605C18.9623 4.84823 18.5438 3.88725 17.827 3.17153Z" fill="#596579"/>
</svg>
