<svg width="115" height="126" viewBox="0 0 115 126" fill="none" xmlns="http://www.w3.org/2000/svg">
<g opacity="0.8">
<path d="M72.9763 83H71.7863C71.0363 83 70.2763 83.15 69.5463 83.26L68.6563 83.39C67.7563 83.51 66.8563 83.67 66.1763 83.8L65.3463 83.94C64.7645 84.021 64.1871 84.1311 63.6163 84.27C63.2563 84.37 62.8863 84.49 62.5063 84.63C62.0629 84.7924 61.6289 84.9794 61.2063 85.19C60.8498 85.4151 60.515 85.6728 60.2063 85.96L60.1063 86.05L60.0063 86.14C59.6246 86.4896 59.2886 86.8861 59.0063 87.32C58.8595 87.5383 58.7323 87.7692 58.6263 88.01L58.3763 88.23C57.757 88.8541 57.3993 89.6911 57.3763 90.57C57.2463 92.24 57.0963 94.46 57.0163 96.72C57.0163 97.39 57.0163 98.07 57.0163 98.72C57.0163 98.98 57.0163 99.23 57.0163 99.48C57.0163 100.57 57.0163 101.66 57.0163 102.75C57.0163 104.16 57.0163 105.59 57.0163 106.98C57.0163 109.39 56.9463 111.87 57.0963 114.31C57.1724 115.514 57.3193 116.713 57.5363 117.9C57.7103 118.839 58.0488 119.739 58.5363 120.56C59.4359 121.951 60.7519 123.022 62.2963 123.62C63.0485 123.956 63.828 124.227 64.6263 124.43C65.2863 124.59 65.9663 124.69 66.6263 124.79C67.5663 124.92 68.5163 125.02 69.3263 125.1C70.1363 125.18 71.0563 125.25 72.0163 125.3C72.9763 125.35 73.6763 125.37 74.3963 125.37C75.5397 125.377 76.6823 125.307 77.8163 125.16L78.2663 125.11C78.8374 125.046 79.4048 124.952 79.9663 124.83C80.4665 124.715 80.9604 124.575 81.4463 124.41C82.5131 124.053 83.5497 123.612 84.5463 123.09C84.9123 122.895 85.2663 122.678 85.6063 122.44C86.1876 122.072 86.7304 121.647 87.2263 121.17C88.0402 120.385 88.7163 119.469 89.2263 118.46C89.8614 117.195 90.3222 115.849 90.5963 114.46C90.8344 113.233 91.0079 111.995 91.1163 110.75C91.2863 109.05 91.3163 107.31 91.3563 105.62V105.09C91.3563 103.01 91.4163 101.09 91.4163 99.2C91.4218 97.0924 91.2006 94.9903 90.7563 92.93C90.5024 91.8097 90.1199 90.7225 89.6163 89.69C89.1988 88.8386 88.6138 88.0801 87.8963 87.46C87.2876 86.9351 86.6158 86.4883 85.8963 86.13C84.8687 85.6653 83.8134 85.2645 82.7363 84.93L82.2563 84.77C81.6463 84.57 81.0063 84.36 80.3763 84.18C78.4171 83.6102 76.408 83.2285 74.3763 83.04C74.0063 83.02 73.4863 83 72.9763 83Z" fill="#A6F5C7"/>
<path d="M12.8167 73C13.4034 73 13.9934 73 14.5867 73C16.0195 73.0714 17.4442 73.2586 18.8467 73.56C19.4402 73.6844 20.0223 73.8583 20.5867 74.08C21.3408 74.3412 22.057 74.701 22.7167 75.15C23.4578 75.6276 24.0285 76.3278 24.3467 77.15C24.5477 77.5808 24.7181 78.0253 24.8567 78.48C25.0394 79.0686 25.1765 79.6704 25.2667 80.28C25.6618 83.0849 25.7823 85.9217 25.6267 88.75C25.6267 90.08 25.5667 91.42 25.5067 92.75C25.4717 94.2357 25.3515 95.7181 25.1467 97.19C25.0922 97.723 24.9712 98.247 24.7867 98.75C24.6328 99.1806 24.4455 99.5985 24.2267 100C24.0068 100.383 23.756 100.748 23.4767 101.09C23.2343 101.411 22.9558 101.703 22.6467 101.96C22.3325 102.205 21.9979 102.422 21.6467 102.61C21.3954 102.745 21.1347 102.862 20.8667 102.96C20.5705 103.086 20.2665 103.193 19.9567 103.28C19.6547 103.367 19.3474 103.434 19.0367 103.48C18.5667 103.54 18.1067 103.62 17.6367 103.65C16.2967 103.74 14.9567 103.76 13.6367 103.72L11.5367 103.63L10.5367 103.54C10.0734 103.499 9.61273 103.432 9.15672 103.34C8.76043 103.277 8.37171 103.173 7.99672 103.03C7.49443 102.845 7.01471 102.603 6.56671 102.31C6.08924 101.984 5.67853 101.57 5.35672 101.09C5.06101 100.615 4.8195 100.109 4.63672 99.58C4.37972 98.8098 4.22179 98.0101 4.16672 97.2C4.03336 95.9647 3.97992 94.7221 4.00671 93.48C4.00671 90.73 4.11672 87.97 4.15672 85.22C4.15672 83.8867 4.15672 82.5533 4.15672 81.22V80.69C4.09849 80.1454 4.0751 79.5976 4.08671 79.05C4.08671 78.93 4.08671 78.81 4.08671 78.69C4.08671 78.18 4.08672 77.69 4.01672 77.17C4.00558 76.8848 4.05917 76.6008 4.17348 76.3393C4.28778 76.0778 4.45983 75.8455 4.67671 75.66C4.76012 75.4955 4.85713 75.3383 4.96672 75.19C5.34676 74.6388 5.85907 74.1918 6.45671 73.89C6.82676 73.7026 7.21135 73.5454 7.60672 73.42C7.8931 73.3437 8.18356 73.2836 8.47671 73.24C9.2405 73.1118 10.0125 73.0383 10.7867 73.02L12.8167 73ZM9.24672 76.75C9.01649 76.7913 8.7893 76.8481 8.56671 76.92L8.34671 77.05L8.27672 77.12V77.17C8.35672 78.44 8.42671 79.71 8.45671 80.99C8.53671 83.6567 8.60339 86.3433 8.65672 89.05C8.65672 91.62 8.65671 94.18 9.00671 96.73C9.09015 97.3171 9.22398 97.8959 9.40672 98.46V98.53L9.60672 98.64C10.0772 98.7951 10.5585 98.9154 11.0467 99C12.2667 99.14 13.4967 99.23 14.7267 99.3C15.9819 99.385 17.2415 99.385 18.4967 99.3C18.9318 99.2255 19.3599 99.1151 19.7767 98.97L20.0867 98.79C20.2176 98.6673 20.3411 98.5371 20.4567 98.4C20.6056 98.1724 20.7392 97.9352 20.8567 97.69C20.9564 97.4126 21.0366 97.1286 21.0967 96.84C21.3065 94.3592 21.3866 91.8692 21.3367 89.38C21.3953 86.7545 21.3185 84.1277 21.1067 81.51C20.9845 80.595 20.7735 79.6941 20.4767 78.82L20.3767 78.65L20.2167 78.48C19.8959 78.2777 19.5618 78.0973 19.2167 77.94C18.9767 77.85 18.7467 77.76 18.4967 77.69C18.2467 77.62 17.7367 77.48 17.3567 77.39C16.6386 77.2064 15.9108 77.0628 15.1767 76.96C14.1767 76.84 13.2467 76.74 12.2767 76.68L10.5567 76.69C10.1192 76.6816 9.68162 76.7016 9.24672 76.75Z" fill="#03A9F4"/>
<path d="M16.6176 14C17.9076 14 19.2076 14 20.4977 14.09C21.1476 14.09 21.7877 14.18 22.4377 14.18C23.0877 14.18 23.6376 14.18 24.2376 14.18C25.6709 14.2175 27.0974 14.3916 28.4977 14.7C29.7376 14.98 30.9876 15.22 32.2276 15.52C33.7938 15.7671 35.2919 16.3357 36.6276 17.19C37.0702 17.4998 37.4791 17.8551 37.8476 18.25C38.2479 18.6687 38.5848 19.1438 38.8476 19.66C39.208 20.3809 39.4993 21.1342 39.7177 21.91C40.0577 23.12 40.3576 24.34 40.6676 25.56C41.3176 28.06 41.7276 30.56 42.1276 33.16C42.3376 34.47 42.5576 35.78 42.7376 37.1C42.9576 38.67 43.0977 40.25 43.1877 41.84C43.3277 44.46 43.4476 47.08 43.3676 49.7C43.3676 51.16 43.2576 52.62 43.1776 54.08C43.0879 55.6278 42.9177 57.1699 42.6676 58.7C42.5205 59.5837 42.2583 60.4444 41.8876 61.26C41.5879 61.8803 41.208 62.4586 40.7576 62.98C40.2443 63.5812 39.6363 64.0946 38.9576 64.5C38.3705 64.8502 37.7589 65.1577 37.1276 65.42H37.0576L36.7276 65.56L36.5876 65.62C35.9776 65.87 35.3576 66.12 34.7276 66.34C34.0976 66.56 33.4776 66.74 32.8476 66.92L31.6676 67.25C30.8514 67.4483 30.023 67.5919 29.1877 67.68C28.5677 67.76 27.9276 67.82 27.2976 67.87C24.5387 68.0617 21.7715 68.1085 19.0076 68.01C16.1229 67.9652 13.2466 67.6842 10.4076 67.17C9.13003 66.9323 7.86778 66.6184 6.62764 66.23C5.82831 65.9813 5.04373 65.6875 4.27765 65.35C3.69661 65.1113 3.14876 64.7988 2.64764 64.42C1.99532 63.9731 1.44074 63.3981 1.01764 62.73C0.727657 62.2317 0.515234 61.6922 0.387649 61.13C0.232983 60.321 0.132755 59.5024 0.0876462 58.68C0.00764623 57.41 -0.0223611 56.14 0.0176389 54.87C0.207639 49.35 0.297638 43.82 0.407638 38.3C0.477638 34.88 0.547652 31.46 0.577652 28.04C0.48661 27.9385 0.406186 27.8279 0.337646 27.71C0.158678 27.4073 0.0653469 27.0617 0.067642 26.71C-0.00736332 25.4178 -0.00736332 24.1222 0.067642 22.83C0.0363428 21.3146 0.343834 19.8114 0.967651 18.43C1.41296 17.5276 2.10687 16.7712 2.96765 16.25C3.60342 15.9143 4.2741 15.6494 4.96765 15.46C5.55765 15.29 6.14764 15.08 6.75764 14.95C7.36764 14.82 7.92764 14.68 8.51764 14.59C9.10764 14.5 9.69764 14.4 10.2876 14.3C11.0576 14.18 11.8277 14.1 12.6077 14.03C13.8677 14 15.2576 14 16.6176 14ZM9.19765 18.68L7.67764 18.9L8.00764 18.85C7.41764 18.96 6.83764 19.1 6.25764 19.26C5.85764 19.37 5.45764 19.47 5.06764 19.61L4.70764 19.8L4.60765 19.91C4.48765 20.09 4.37764 20.26 4.26764 20.45C4.15764 20.64 4.17765 20.81 4.13765 21C4.05765 21.84 4.05764 22.7 4.04764 23.55C4.03764 24.4 4.04764 24.97 4.04764 25.68V26.3C4.10764 31.76 4.22764 37.23 4.34764 42.69C4.40764 45.52 4.45765 48.34 4.52765 51.16C4.58765 53.62 4.65765 56.08 4.94765 58.52C5.01565 59.0751 5.12937 59.6236 5.28764 60.16V60.25L5.54764 60.5C5.91162 60.7407 6.29264 60.9546 6.68765 61.14C7.71715 61.5348 8.76896 61.8687 9.83765 62.14C10.4376 62.29 11.0376 62.44 11.6476 62.55C12.2576 62.66 13.0576 62.79 13.7676 62.89C16.4248 63.1704 19.0958 63.3006 21.7676 63.28C23.0676 63.28 24.3576 63.28 25.6476 63.28C26.9376 63.28 28.0176 63.13 29.1976 62.99C30.356 62.7688 31.4984 62.4715 32.6176 62.1C33.3576 61.88 34.0776 61.61 34.7976 61.32L35.1276 61.17C35.6398 60.9385 36.1316 60.6642 36.5976 60.35L36.9876 59.98C37.0976 59.81 37.1976 59.63 37.2976 59.45C37.4428 59.0093 37.5532 58.558 37.6276 58.1C37.7558 56.8541 37.8192 55.6025 37.8176 54.35C37.8176 52.89 37.8176 51.42 37.8176 49.96C37.8176 48.5 37.7577 47.23 37.6877 45.87C37.5477 43.36 37.4276 40.87 37.1176 38.37C36.8776 36.63 36.5976 34.9 36.3676 33.17C36.1376 31.44 35.8076 29.46 35.3676 27.61C35.1676 26.67 34.9676 25.72 34.7376 24.78C34.5076 23.84 34.3477 23.17 34.0777 22.39C33.9777 22.21 33.8776 22.03 33.7676 21.86C33.6313 21.7003 33.4843 21.5499 33.3277 21.41C33.17 21.3071 33.0064 21.2136 32.8376 21.13C31.6196 20.6873 30.3777 20.3133 29.1176 20.01C28.4376 19.84 27.7576 19.66 27.1176 19.47C26.5687 19.3167 26.011 19.1964 25.4476 19.11C24.9276 19.05 24.4476 19.01 23.8876 18.97C23.3277 18.93 22.7376 18.97 22.1576 18.89L20.3076 18.75C18.9476 18.66 17.5776 18.58 16.2076 18.52C14.8376 18.46 13.5776 18.39 12.2676 18.44C11.2576 18.43 10.2276 18.55 9.19765 18.68Z" fill="#E9F0FE"/>
<path d="M85.3764 33.3789H86.3764C87.7164 33.3789 89.0564 33.4689 90.3764 33.5489C91.6964 33.6289 93.0964 33.7189 94.4564 33.7789C95.8164 33.8389 97.0264 33.9889 98.3164 34.0689C99.6064 34.1489 100.956 34.2789 102.316 34.3689C103.779 34.4185 105.229 34.6469 106.636 35.0489C107.375 35.3003 108.091 35.6148 108.776 35.9889C109.561 36.3864 110.261 36.9333 110.836 37.5989C111.32 38.1739 111.726 38.8093 112.046 39.4889C112.356 40.2189 112.636 40.9489 112.876 41.7089C113.274 42.9177 113.566 44.1591 113.746 45.4189C113.961 46.9299 114.082 48.4529 114.106 49.9789C114.105 51.229 114.028 52.478 113.876 53.7189C113.726 55.2189 113.616 56.7189 113.346 58.2089C113.128 59.5162 112.794 60.8014 112.346 62.0489C112.08 62.7755 111.745 63.4753 111.346 64.1389C111.154 64.4262 110.947 64.7032 110.726 64.9689C110.6 65.1521 110.456 65.3229 110.296 65.4789C109.873 65.8648 109.407 66.2004 108.906 66.4789C107.458 67.2008 105.873 67.6097 104.256 67.6789C102.926 67.8289 101.596 67.9389 100.256 68.0189C98.9164 68.0989 97.5864 68.0989 96.2564 68.1089C94.9264 68.1189 93.6064 68.1089 92.2564 68.1089C90.9064 68.1089 89.4464 68.1089 88.0364 68.0289C86.6264 67.9489 85.4864 67.8489 84.2164 67.7589C82.9464 67.6689 81.5664 67.5389 80.2164 67.3789C79.3064 67.2689 78.3964 67.1589 77.4964 66.9789C76.8212 66.8483 76.1535 66.6814 75.4964 66.4789C73.7639 66.0798 72.1859 65.183 70.9564 63.8989C70.6089 63.4984 70.2945 63.0703 70.0164 62.6189C69.742 62.1475 69.511 61.6521 69.3264 61.1389C69.0419 60.2933 68.8573 59.4174 68.7764 58.5289C68.6514 57.2753 68.6514 56.0125 68.7764 54.7589C68.8764 53.3589 69.0564 51.9589 69.2464 50.5689L69.6364 47.6689C69.8264 46.0489 70.0064 44.4389 70.2764 42.8389C70.3895 42.1998 70.5431 41.5685 70.7364 40.9489C70.9172 40.3561 71.1343 39.775 71.3864 39.2089C71.6691 38.6374 72.0218 38.1033 72.4364 37.6189C72.9398 36.9835 73.5327 36.4244 74.1964 35.9589L74.4864 35.9189L74.6764 35.7989C75.2355 35.4711 75.8209 35.1901 76.4264 34.9589C77.9005 34.295 79.4996 33.9541 81.1164 33.9589C81.4042 33.8002 81.7277 33.7176 82.0564 33.7189H82.3464C83.0264 33.6289 83.6964 33.5489 84.3464 33.5089C84.7164 33.3889 85.0464 33.3789 85.3764 33.3789ZM81.7564 38.8489C81.5614 38.8717 81.3677 38.905 81.1764 38.9489C80.7341 39.0471 80.2996 39.1774 79.8764 39.3389C79.2164 39.6189 78.5808 39.9534 77.9764 40.3389L77.7764 40.4689C77.6387 40.5981 77.5085 40.735 77.3864 40.8789C77.2041 41.144 77.0404 41.4213 76.8964 41.7089C76.6306 42.5489 76.43 43.4081 76.2964 44.2789C75.9964 46.6989 75.8064 49.1389 75.5064 51.5589C75.3464 52.9089 75.2264 54.2589 75.1564 55.6189C75.0865 56.6744 75.0865 57.7334 75.1564 58.7889C75.2264 59.0789 75.2964 59.3689 75.3864 59.6589C75.4867 59.8478 75.5969 60.0314 75.7164 60.2089L75.8564 60.3589C76.1429 60.5399 76.4401 60.7036 76.7464 60.8489C77.5409 61.1591 78.3562 61.4131 79.1864 61.6089C80.0764 61.8189 80.9964 61.9389 81.9064 62.0789C83.0064 62.2189 84.1064 62.3289 85.2064 62.4689C86.5764 62.6489 87.9364 62.7589 89.3164 62.8289C92.0264 62.9789 94.7464 63.0089 97.4664 63.0489C99.9414 63.0975 102.417 62.9805 104.876 62.6989C105.335 62.6325 105.787 62.5255 106.226 62.3789L106.646 62.1389L106.836 61.9389C107.111 61.5189 107.352 61.0775 107.556 60.6189C107.946 59.3874 108.237 58.1267 108.426 56.8489C108.526 56.0289 108.596 55.2089 108.656 54.3889C108.716 53.5689 108.836 52.5989 108.906 51.6989C108.976 50.7989 108.986 49.8389 108.976 48.8989C108.966 47.9589 108.926 47.0889 108.826 46.1889C108.718 45.3103 108.557 44.4388 108.346 43.5789C108.139 42.6995 107.885 41.8317 107.586 40.9789C107.479 40.7439 107.355 40.5167 107.216 40.2989L107.126 40.2089C106.849 40.0301 106.562 39.8665 106.266 39.7189C105.673 39.4976 105.06 39.3302 104.436 39.2189C103.436 39.1289 102.436 39.1089 101.516 39.0389C100.396 38.9489 99.2764 38.9089 98.1564 38.8189C96.8464 38.7289 95.5364 38.6189 94.2264 38.5589C92.9164 38.4989 91.7164 38.4389 90.4564 38.3589H89.8364C87.1264 38.5089 84.4264 38.5589 81.7564 38.8489Z" fill="#FF8F00"/>
<path d="M69.3244 12.6312C69.3244 12.8812 69.3244 13.1212 69.3244 13.3712C69.3244 14.3712 69.2644 15.3712 69.2044 16.3712C69.1444 17.3712 69.0744 18.4312 69.0244 19.4612C68.9744 20.4912 68.8744 21.4012 68.8144 22.3812C68.7544 23.3612 68.6544 24.3812 68.5744 25.3812C68.5399 26.4914 68.3686 27.593 68.0644 28.6612C67.8775 29.2185 67.6398 29.7574 67.3544 30.2712C67.0586 30.872 66.6435 31.4062 66.1344 31.8412C65.7022 32.2066 65.2209 32.5096 64.7044 32.7412C64.1561 32.9839 63.5953 33.1976 63.0244 33.3812C62.1084 33.6811 61.1682 33.9019 60.2144 34.0412C59.071 34.2011 57.9188 34.2913 56.7644 34.3112C55.8151 34.306 54.8668 34.246 53.9244 34.1312C52.7944 34.0212 51.6544 33.9412 50.5344 33.7312C49.5426 33.5654 48.5684 33.3077 47.6244 32.9612C47.071 32.752 46.5386 32.4908 46.0344 32.1812C45.8144 32.0412 45.6144 31.8712 45.4144 31.7212C45.2775 31.6162 45.1472 31.5026 45.0244 31.3812C44.7229 31.0641 44.4609 30.7115 44.2444 30.3312C43.6948 29.2352 43.3814 28.036 43.3244 26.8112C43.2144 25.8112 43.1344 24.8112 43.0744 23.8112C43.0144 22.8112 43.0144 21.8112 43.0044 20.8112C42.9944 19.8112 43.0044 18.8112 43.0044 17.8112C43.0044 16.8112 43.0044 15.6812 43.0544 14.6112C43.1044 13.5412 43.1944 12.6912 43.2644 11.7212C43.3344 10.7512 43.4244 9.72122 43.5544 8.72122C43.6344 8.03122 43.7144 7.34122 43.8544 6.66122C43.9552 6.15502 44.0821 5.65435 44.2344 5.16122C44.5432 3.84079 45.2397 2.64282 46.2344 1.72122C46.5477 1.45744 46.8821 1.21996 47.2344 1.01122C47.5919 0.805594 47.9667 0.63161 48.3544 0.491226C49.0013 0.269571 49.673 0.128509 50.3544 0.0712281C51.3021 -0.0237427 52.2568 -0.0237427 53.2044 0.0712281C54.2744 0.141228 55.3244 0.281229 56.3844 0.431229L58.5744 0.721222C59.7944 0.871222 61.0244 1.00122 62.2344 1.20122C62.7171 1.2919 63.1945 1.40875 63.6644 1.55122C64.1142 1.69089 64.555 1.85787 64.9844 2.05122C65.4164 2.26252 65.8196 2.52798 66.1844 2.84122C66.6641 3.22391 67.0882 3.67155 67.4444 4.17122L67.5644 4.36122L67.6544 4.50122C67.8996 4.92504 68.1135 5.36622 68.2944 5.82123C68.7954 6.94121 69.0544 8.15431 69.0544 9.38123C69.1777 9.60128 69.2431 9.84901 69.2444 10.1012V10.3212C69.3144 10.8312 69.3744 11.3212 69.4044 11.8612C69.3244 12.1312 69.3244 12.3812 69.3244 12.6312ZM65.1944 9.89122C65.1944 9.74122 65.1944 9.59122 65.1144 9.45122C65.0363 9.11171 64.9361 8.77766 64.8144 8.45122C64.5924 7.95162 64.3316 7.47016 64.0344 7.01122L63.9244 6.86122C63.8321 6.75386 63.7318 6.65357 63.6244 6.56122C63.4237 6.42269 63.2132 6.29903 62.9944 6.19122C62.3398 5.98979 61.6713 5.83604 60.9944 5.73122C59.1644 5.51122 57.3244 5.36122 55.4844 5.14122C54.4844 5.02122 53.4844 4.93122 52.4144 4.87122C51.6152 4.82125 50.8137 4.82125 50.0144 4.87122C49.7906 4.91608 49.5701 4.97623 49.3544 5.05122C49.2079 5.11922 49.0674 5.19951 48.9344 5.29123L48.8244 5.40121C48.686 5.61767 48.5592 5.84133 48.4444 6.07123C48.2125 6.67418 48.022 7.29228 47.8744 7.92122C47.7144 8.60122 47.6244 9.29122 47.5144 9.92122C47.4144 10.7612 47.3244 11.6012 47.2144 12.4312C47.0844 13.4312 47.0044 14.5012 46.9444 15.5412C46.8344 17.5912 46.8144 19.6512 46.7844 21.7112C46.7461 23.5849 46.8329 25.4591 47.0444 27.3212C47.0998 27.6609 47.1834 27.9954 47.2944 28.3212C47.3469 28.4288 47.407 28.5324 47.4744 28.6312L47.6244 28.7812C47.9434 28.9866 48.2778 29.1671 48.6244 29.3212C49.5585 29.6176 50.5149 29.8383 51.4844 29.9812C52.1044 30.0512 52.7244 30.1112 53.3444 30.1512C53.9644 30.1912 54.6944 30.2912 55.3444 30.3412C55.9944 30.3912 56.7544 30.4012 57.4644 30.3412C58.1525 30.3395 58.8401 30.3028 59.5244 30.2312C60.198 30.153 60.8659 30.0328 61.5244 29.8712C62.2011 29.714 62.8687 29.5204 63.5244 29.2912C63.7028 29.2112 63.8764 29.1211 64.0444 29.0212L64.1044 28.9512C64.2412 28.7425 64.3647 28.5254 64.4744 28.3012C64.6453 27.8477 64.7725 27.3789 64.8544 26.9012C64.9244 26.1712 64.9344 25.4312 64.9944 24.7012C65.0544 23.9712 65.0944 23.0012 65.1544 22.1512C65.2144 21.3012 65.3144 20.1512 65.3544 19.1512C65.3944 18.1512 65.4444 17.2412 65.5044 16.2912C65.5044 16.1312 65.5044 15.9812 65.5044 15.8212C65.4444 13.9512 65.4044 11.9112 65.1944 9.89122Z" fill="#4D4962"/>
</g>
</svg>
