<svg width="223" height="85" viewBox="0 0 223 85" fill="none" xmlns="http://www.w3.org/2000/svg">
<g opacity="0.2">
<path d="M105.179 9.28471C104.69 9.1206 104.188 8.999 103.678 8.92127C101.581 8.72188 99.4645 8.93639 97.4496 9.55262C80.1755 13.7563 57.2212 19.6365 41.339 28.4576C29.6046 34.915 20.7444 45.5688 16.5341 58.2837C9.50285 78.3241 19.4579 85.9059 28.4507 102.192C39.0257 121.345 37.5134 137.227 38.6068 159.168C39.6238 179.545 50.5452 195.656 68.2354 203.34C89.1156 212.418 121.369 211.661 143.202 205.043C165.035 198.425 188.605 189.439 202.619 168.064C224.595 134.511 179.652 93.0932 162.395 73.9216C154.263 64.8749 143.352 58.4364 135.882 48.6764C131.103 42.4893 128.126 35.0352 123.393 28.7145C119.058 22.9761 112.26 11.7183 105.179 9.28471Z" stroke="#03A9F4" stroke-width="4" stroke-miterlimit="10"/>
<path d="M96.5692 38.1779C95.0868 38.1081 93.6049 38.3233 92.2036 38.8117C80.0372 42.3545 64.5951 46.9884 54.0838 53.437C46.3094 58.2873 40.621 65.8602 38.1285 74.6779C33.8033 88.5293 40.6445 94.0168 46.8773 105.521C54.9133 120.409 54.1984 133.067 55.7926 149.272C57.32 164.392 65.9168 176.107 80.3849 181.7C96.4182 187.911 119.614 187.031 135.431 181.637C151.249 176.243 167.719 168.672 177.185 152.715C186.183 137.678 178.233 120.582 167.361 106.14C160.535 97.1119 152.5 89.0151 147.233 83.2062C141.211 76.5604 133.306 71.6502 127.701 64.5724C124.098 60.0378 121.724 54.6821 118.183 50.1389C114.642 45.5958 109.568 37.7441 104.662 35.9784C102.344 35.2026 98.3388 36.4916 96.5692 38.1779Z" stroke="#03A9F4" stroke-width="3.33" stroke-miterlimit="10"/>
<path d="M89.4409 67.4489C88.5965 67.5359 87.7738 67.7695 87.0096 68.1392C79.8867 71.0448 71.9449 74.4004 66.818 78.4934C63.0145 81.7314 60.4853 86.2157 59.6819 91.1458C58.0526 98.7609 61.8255 102.159 65.2933 108.927C70.7616 119.532 70.8136 128.963 72.9374 139.45C74.9481 149.278 81.1816 156.671 92.4103 160.049C103.998 163.264 116.317 162.621 127.506 158.215C137.488 153.942 146.771 147.883 151.748 137.383C156.352 127.627 151.857 116.712 144.905 107.286C140.884 102.132 136.594 97.193 132.054 92.4899C128.173 88.2485 123.276 84.8513 119.502 80.4676C117.122 77.5752 115.353 74.3027 113 71.5828C110.269 68.3751 106.845 63.7522 104.098 62.668C100.012 61.2994 92.4829 63.9761 89.4409 67.4489Z" stroke="#03A9F4" stroke-width="2.67" stroke-miterlimit="10"/>
</g>
</svg>
